<svg xmlns="http://www.w3.org/2000/svg" version="1.1" xmlns:xlink="http://www.w3.org/1999/xlink" xmlns:svgjs="http://svgjs.com/svgjs" width="1440" height="560" preserveAspectRatio="none" viewBox="0 0 1440 560">
    <g mask="url(&quot;#SvgjsMask1158&quot;)" fill="none">
        <path d="M637 393L636 751" stroke-width="8" stroke="url(#SvgjsLinearGradient1159)" stroke-linecap="round" class="Up"></path>
        <path d="M163 232L162 -80" stroke-width="8" stroke="url(#SvgjsLinearGradient1159)" stroke-linecap="round" class="Up"></path>
        <path d="M954 66L953 234" stroke-width="6" stroke="url(#SvgjsLinearGradient1160)" stroke-linecap="round" class="Down"></path>
        <path d="M157 325L156 476" stroke-width="10" stroke="url(#SvgjsLinearGradient1161)" stroke-linecap="round" class="Up"></path>
        <path d="M392 198L391 -110" stroke-width="6" stroke="url(#SvgjsLinearGradient1160)" stroke-linecap="round" class="Down"></path>
        <path d="M338 308L337 115" stroke-width="10" stroke="url(#SvgjsLinearGradient1162)" stroke-linecap="round" class="Down"></path>
        <path d="M974 26L973 315" stroke-width="6" stroke="url(#SvgjsLinearGradient1161)" stroke-linecap="round" class="Up"></path>
        <path d="M945 324L944 68" stroke-width="8" stroke="url(#SvgjsLinearGradient1159)" stroke-linecap="round" class="Up"></path>
        <path d="M212 434L211 774" stroke-width="8" stroke="url(#SvgjsLinearGradient1160)" stroke-linecap="round" class="Down"></path>
        <path d="M705 263L704 626" stroke-width="10" stroke="url(#SvgjsLinearGradient1162)" stroke-linecap="round" class="Down"></path>
        <path d="M626 488L625 198" stroke-width="8" stroke="url(#SvgjsLinearGradient1162)" stroke-linecap="round" class="Down"></path>
        <path d="M70 518L69 309" stroke-width="6" stroke="url(#SvgjsLinearGradient1161)" stroke-linecap="round" class="Up"></path>
        <path d="M1036 538L1035 178" stroke-width="10" stroke="url(#SvgjsLinearGradient1161)" stroke-linecap="round" class="Up"></path>
        <path d="M111 420L110 770" stroke-width="8" stroke="url(#SvgjsLinearGradient1161)" stroke-linecap="round" class="Up"></path>
        <path d="M778 457L777 875" stroke-width="10" stroke="url(#SvgjsLinearGradient1159)" stroke-linecap="round" class="Up"></path>
        <path d="M186 49L185 352" stroke-width="6" stroke="url(#SvgjsLinearGradient1161)" stroke-linecap="round" class="Up"></path>
        <path d="M1058 62L1057 -249" stroke-width="6" stroke="url(#SvgjsLinearGradient1160)" stroke-linecap="round" class="Down"></path>
        <path d="M555 397L554 -4" stroke-width="6" stroke="url(#SvgjsLinearGradient1162)" stroke-linecap="round" class="Down"></path>
        <path d="M1214 386L1213 68" stroke-width="10" stroke="url(#SvgjsLinearGradient1159)" stroke-linecap="round" class="Up"></path>
        <path d="M796 501L795 675" stroke-width="8" stroke="url(#SvgjsLinearGradient1160)" stroke-linecap="round" class="Down"></path>
        <path d="M1197 546L1196 727" stroke-width="6" stroke="url(#SvgjsLinearGradient1162)" stroke-linecap="round" class="Down"></path>
        <path d="M932 166L931 -231" stroke-width="10" stroke="url(#SvgjsLinearGradient1160)" stroke-linecap="round" class="Down"></path>
        <path d="M789 333L788 144" stroke-width="10" stroke="url(#SvgjsLinearGradient1161)" stroke-linecap="round" class="Up"></path>
        <path d="M400 446L399 630" stroke-width="8" stroke="url(#SvgjsLinearGradient1160)" stroke-linecap="round" class="Down"></path>
        <path d="M754 498L753 172" stroke-width="10" stroke="url(#SvgjsLinearGradient1159)" stroke-linecap="round" class="Up"></path>
        <path d="M504 127L503 507" stroke-width="6" stroke="url(#SvgjsLinearGradient1159)" stroke-linecap="round" class="Up"></path>
        <path d="M792 198L791 552" stroke-width="8" stroke="url(#SvgjsLinearGradient1161)" stroke-linecap="round" class="Up"></path>
        <path d="M679 84L678 -322" stroke-width="6" stroke="url(#SvgjsLinearGradient1161)" stroke-linecap="round" class="Up"></path>
        <path d="M1107 271L1106 611" stroke-width="6" stroke="url(#SvgjsLinearGradient1162)" stroke-linecap="round" class="Down"></path>
        <path d="M943 174L942 -192" stroke-width="6" stroke="url(#SvgjsLinearGradient1161)" stroke-linecap="round" class="Up"></path>
        <path d="M1316 418L1315 643" stroke-width="6" stroke="url(#SvgjsLinearGradient1161)" stroke-linecap="round" class="Up"></path>
        <path d="M662 234L661 68" stroke-width="8" stroke="url(#SvgjsLinearGradient1161)" stroke-linecap="round" class="Up"></path>
        <path d="M1163 291L1162 683" stroke-width="8" stroke="url(#SvgjsLinearGradient1162)" stroke-linecap="round" class="Down"></path>
        <path d="M847 513L846 257" stroke-width="10" stroke="url(#SvgjsLinearGradient1159)" stroke-linecap="round" class="Up"></path>
        <path d="M283 20L282 422" stroke-width="6" stroke="url(#SvgjsLinearGradient1162)" stroke-linecap="round" class="Down"></path>
        <path d="M1234 459L1233 213" stroke-width="10" stroke="url(#SvgjsLinearGradient1161)" stroke-linecap="round" class="Up"></path>
    </g>
    <defs>
        <mask id="SvgjsMask1158">
            <rect width="1440" height="560" fill="#ffffff"></rect>
        </mask>
        <linearGradient x1="0%" y1="100%" x2="0%" y2="0%" id="SvgjsLinearGradient1159">
            <stop stop-color="rgba(28, 83, 142, 0)" offset="0"></stop>
            <stop stop-color="#1c538e" offset="1"></stop>
        </linearGradient>
        <linearGradient x1="0%" y1="0%" x2="0%" y2="100%" id="SvgjsLinearGradient1160">
            <stop stop-color="rgba(92, 225, 230, 0)" offset="0"></stop>
            <stop stop-color="rgba(92, 225, 230, 1)" offset="1"></stop>
        </linearGradient>
        <linearGradient x1="0%" y1="100%" x2="0%" y2="0%" id="SvgjsLinearGradient1161">
            <stop stop-color="rgba(92, 225, 230, 0)" offset="0"></stop>
            <stop stop-color="rgba(92, 225, 230, 1)" offset="1"></stop>
        </linearGradient>
        <linearGradient x1="0%" y1="0%" x2="0%" y2="100%" id="SvgjsLinearGradient1162">
            <stop stop-color="rgba(28, 83, 142, 0)" offset="0"></stop>
            <stop stop-color="#1c538e" offset="1"></stop>
        </linearGradient>
    </defs>
</svg>